<svg version="1.1" id="Layer_1" xmlns="http://www.w3.org/2000/svg"
  xmlns:xlink="http://www.w3.org/1999/xlink" x="0px" y="0px"
  width="100%" viewBox="0 0 212 190" enable-background="new 0 0 212 190" xml:space="preserve">
<path fill="#00000000" opacity="1.000000" stroke="none" 
	d="
M131.000000,191.000000 
	C87.333336,191.000000 44.166672,191.000000 1.000006,191.000000 
	C1.000004,127.666672 1.000004,64.333344 1.000002,1.000014 
	C71.666656,1.000010 142.333313,1.000010 212.999969,1.000005 
	C212.999985,64.333321 212.999985,127.666634 213.000000,190.999969 
	C185.833328,191.000000 158.666672,191.000000 131.000000,191.000000 
M9.459475,127.005013 
	C9.299685,127.056923 9.139894,127.108826 8.242686,127.048965 
	C7.236145,128.159760 5.163805,129.876495 5.395202,130.283508 
	C6.952629,133.022964 8.998908,135.484497 10.994109,138.733978 
	C11.414443,139.405762 11.737968,140.168259 12.269614,140.735764 
	C20.374760,149.387604 30.390360,154.582367 41.805389,157.692764 
	C38.186237,160.754059 34.567089,163.815338 30.299175,167.195969 
	C27.353489,170.287476 29.998348,172.392502 31.835949,174.251251 
	C43.314236,185.861618 57.776855,187.605621 72.863846,185.479004 
	C85.943405,183.635330 95.872086,175.744888 104.314018,166.058014 
	C106.440437,163.618027 107.074966,163.460846 109.185379,166.106644 
	C111.885155,169.491272 115.337883,172.323456 118.680862,175.138733 
	C135.101044,188.966827 160.978241,190.487625 177.848877,177.478958 
	C186.472076,170.829742 186.286301,168.732468 178.113007,163.580078 
	C176.764679,162.730118 175.447144,161.831314 173.840149,160.348389 
	C172.971436,159.413864 172.102707,158.479324 170.912369,157.198807 
	C183.098495,154.049850 193.493683,148.780762 201.720200,138.802399 
	C202.179474,137.875504 202.638748,136.948608 203.742813,135.737961 
	C204.269470,134.914398 204.800842,134.093796 205.322067,133.266800 
	C208.255692,128.612183 207.760956,127.141357 202.631134,125.870270 
	C199.796234,125.167839 196.899124,124.716530 193.273926,123.968529 
	C191.527878,123.665161 189.781830,123.361786 187.685974,122.940956 
	C187.685974,122.940956 187.317368,122.924126 186.946152,122.427292 
	C186.858398,120.916313 186.550613,119.375847 186.748001,117.903076 
	C186.926956,116.567719 187.656372,115.306129 188.666168,113.499634 
	C189.945694,104.736435 189.932205,104.786873 181.341217,105.991440 
	C177.557892,106.521927 173.721985,106.677498 169.875534,106.303833 
	C169.953079,104.846008 170.030624,103.388191 170.369202,101.322006 
	C171.600769,99.219818 172.832336,97.117630 174.550858,94.491493 
	C175.055786,92.374619 175.560715,90.257744 176.860001,88.021477 
	C180.700485,88.162964 183.665665,86.852570 185.800797,82.731575 
	C190.021973,76.273193 188.300995,70.080490 180.802826,65.259613 
	C179.555069,65.121422 178.307297,64.983231 177.020065,64.061607 
	C176.628189,62.035473 176.236313,60.009338 175.912613,57.208424 
	C173.625122,51.453091 171.337616,45.697754 168.917038,39.261486 
	C149.556229,6.524693 102.822601,-3.099265 69.479370,15.247223 
	C69.204773,15.433482 69.017578,15.684848 68.985855,15.960848 
	C68.985855,15.960848 68.945190,15.892900 68.262718,16.056969 
	C63.824833,19.304518 59.386948,22.552067 54.349598,26.155872 
	C51.641434,29.598398 48.829948,32.965363 46.245945,36.498688 
	C40.292915,44.638767 38.137608,54.255047 35.141266,63.949959 
	C34.254082,64.286194 33.370556,64.632462 32.479145,64.957085 
	C25.463100,67.512093 21.695423,75.582848 26.310930,82.809509 
	C29.082914,87.149712 33.200157,88.650330 38.015961,89.851425 
	C38.988079,93.270325 39.960201,96.689224 41.030239,100.835922 
	C41.720768,102.901176 42.411297,104.966438 42.673687,107.732506 
	C38.078850,106.961197 33.428493,106.421303 28.908747,105.336998 
	C25.909060,104.617355 23.740244,105.235474 23.379551,108.197708 
	C23.152607,110.061508 24.388943,112.103493 25.014666,114.795067 
	C25.986181,117.192665 26.957697,119.590256 27.111828,121.997650 
	C21.393085,123.637146 15.674343,125.276642 9.459475,127.005013 
z"/>
<path fill="#3C3C3C" opacity="1.000000" stroke="none" 
	d="
M69.938873,15.122545 
	C102.822601,-3.099265 149.556229,6.524693 168.729584,39.730553 
	C167.416870,39.412846 166.279251,38.643059 165.168396,37.836430 
	C159.717300,33.878185 154.668594,29.119892 148.725861,26.147411 
	C141.447174,22.506699 135.232742,26.827944 134.006500,34.855896 
	C132.098206,47.348793 135.790466,57.337563 146.385727,64.602470 
	C151.559387,68.149940 156.184601,72.813866 163.156097,72.432159 
	C162.933975,74.517776 162.800751,76.192558 162.455170,78.048454 
	C162.404053,78.678970 162.565262,79.128365 162.712555,79.594070 
	C162.698654,79.610382 162.658585,79.625618 162.193176,79.792892 
	C157.466446,82.367699 159.436798,86.430077 158.708450,89.911285 
	C156.105194,90.949600 153.778824,91.770119 151.691803,92.997559 
	C147.002930,95.755241 142.384308,98.641235 137.841614,101.633644 
	C136.322510,102.634323 135.120804,104.116821 133.774017,105.379074 
	C135.429993,106.308708 136.992935,107.523514 138.763718,108.101265 
	C141.432312,108.971931 144.246124,109.397438 146.735535,110.203583 
	C144.983734,111.271576 143.494614,112.148155 141.660431,113.051193 
	C140.214859,113.397072 139.114334,113.716492 137.636353,114.038589 
	C135.500946,115.022423 133.742981,116.003578 131.654373,116.984138 
	C130.882889,116.986137 130.442062,116.988739 129.734055,116.825523 
	C128.306625,117.101273 127.146362,117.542824 125.655243,117.984253 
	C124.883217,117.987099 124.442070,117.990074 123.700119,117.804123 
	C120.656219,116.467781 117.098557,116.040565 115.325645,114.035362 
	C110.381050,108.442879 103.650269,107.767647 97.252846,105.632973 
	C87.578453,102.404861 78.183655,98.322723 68.732605,94.450775 
	C65.719742,93.216454 62.905743,91.496712 60.000374,89.999542 
	C60.000000,90.000000 60.000862,89.999084 59.910793,89.670609 
	C58.214886,87.560150 56.609047,85.778168 54.834019,83.722374 
	C54.105583,82.302040 53.546337,81.155518 52.956696,79.666466 
	C51.983837,78.213730 51.041374,77.103531 49.992661,75.640488 
	C48.537033,72.654205 47.187656,70.020767 45.868340,66.909813 
	C46.263165,48.022263 53.695175,32.812943 66.731056,20.074739 
	C67.805389,19.024939 68.222633,17.302698 68.945190,15.892900 
	C68.945190,15.892900 68.985855,15.960848 69.131737,15.845259 
	C69.515656,15.546484 69.736076,15.344110 69.938873,15.122545 
z"/>
<path fill="#999999" opacity="1.000000" stroke="none" 
	d="
M174.115387,160.955063 
	C175.447144,161.831314 176.764679,162.730118 178.113007,163.580078 
	C186.286301,168.732468 186.472076,170.829742 177.848877,177.478958 
	C160.978241,190.487625 135.101044,188.966827 118.680862,175.138733 
	C115.337883,172.323456 111.885155,169.491272 109.185379,166.106644 
	C107.074966,163.460846 106.440437,163.618027 104.314018,166.058014 
	C95.872086,175.744888 85.943405,183.635330 72.863846,185.479004 
	C57.776855,187.605621 43.314236,185.861618 31.835949,174.251251 
	C29.998348,172.392502 27.353489,170.287476 30.733400,167.256927 
	C35.154015,164.481308 39.142582,161.647675 43.073807,158.736603 
	C43.096691,158.719666 42.317585,157.619675 41.912987,157.025436 
	C30.390360,154.582367 20.374760,149.387604 12.269614,140.735764 
	C11.737968,140.168259 11.414443,139.405762 11.355499,138.393127 
	C13.612428,138.362976 15.506251,138.904602 17.403988,138.918671 
	C19.259451,138.932449 21.118906,138.408112 23.311211,138.182312 
	C25.561359,139.763733 27.336456,141.523895 29.427334,142.742050 
	C32.156361,144.331985 35.135475,145.492661 38.266197,147.021469 
	C40.002563,147.121857 41.479713,147.038803 42.985222,147.324600 
	C43.616306,151.778290 46.341061,153.067932 50.051800,153.412750 
	C50.005619,154.516251 49.970119,155.251724 49.580521,156.032883 
	C48.275490,157.026733 47.324558,157.974899 46.373627,158.923065 
	C47.277306,159.772675 48.101147,160.739349 49.113457,161.429657 
	C49.760250,161.870728 50.701012,161.858353 51.483940,162.125549 
	C60.084435,165.060745 68.790901,167.733139 77.218094,171.103271 
	C80.291870,172.332535 82.640732,175.727005 86.335938,171.820038 
	C88.787048,170.429169 90.934380,169.186234 93.442642,167.961731 
	C97.216728,165.330719 100.629875,162.681244 104.020767,160.016907 
	C103.998512,160.002045 104.018028,160.051926 104.434555,160.053131 
	C106.238297,160.050934 107.625519,160.047546 109.018356,160.013580 
	C109.023979,159.982986 108.961815,159.984833 109.073723,160.271851 
	C109.460381,160.865112 109.735138,161.171371 110.067253,161.597137 
	C110.233688,161.865280 110.377106,161.964066 110.774109,162.235382 
	C111.641945,162.948975 112.290527,163.440201 113.221275,164.107513 
	C115.332100,165.507355 117.160751,166.731110 119.318283,168.151001 
	C122.558853,168.165390 125.532997,168.301376 128.370773,167.743607 
	C137.741699,165.901733 147.008926,163.476730 156.423981,161.935516 
	C162.219315,160.986832 168.211563,161.240982 174.115387,160.955063 
z"/>
<path fill="#959595" opacity="1.000000" stroke="none" 
	d="
M173.977768,160.651733 
	C168.211563,161.240982 162.219315,160.986832 156.423981,161.935516 
	C147.008926,163.476730 137.741699,165.901733 128.370773,167.743607 
	C125.532997,168.301376 122.558853,168.165390 119.371170,167.793976 
	C120.626724,166.175949 122.019356,164.598923 123.714989,164.138992 
	C129.633316,162.533676 135.619019,161.112244 141.648819,159.998260 
	C149.721298,158.506882 157.858780,157.367279 166.575943,155.979919 
	C165.234207,154.143265 164.110779,152.605438 163.128632,150.753082 
	C163.736847,149.988419 164.130463,149.290833 164.682343,149.127274 
	C169.081100,147.823669 169.106506,145.755386 166.361816,142.456299 
	C163.650040,139.196762 161.420517,135.535995 159.342163,132.079803 
	C161.121841,132.435822 162.538773,132.763290 164.049042,133.423538 
	C165.388809,135.665054 166.490875,137.689209 167.907852,139.461594 
	C172.792252,145.571213 176.961929,145.444321 182.237518,138.922577 
	C182.977890,138.174576 183.552689,137.665405 184.379807,137.336288 
	C186.220078,138.079391 187.788437,139.047073 189.399857,139.125076 
	C193.296402,139.313705 197.213028,139.087204 201.121567,139.028046 
	C193.493683,148.780762 183.098495,154.049850 170.912369,157.198807 
	C172.102707,158.479324 172.971436,159.413864 173.977768,160.651733 
z"/>
<path fill="#343434" opacity="1.000000" stroke="none" 
	d="
M175.844421,57.983208 
	C176.236313,60.009338 176.628189,62.035473 176.624329,64.514656 
	C171.376694,64.627464 167.524597,66.559807 164.056732,70.014801 
	C162.314224,69.315506 160.900543,68.822334 159.538376,68.213821 
	C144.960251,61.701546 138.060226,51.329132 139.034866,37.430698 
	C139.410263,32.077477 142.217285,29.398165 147.484604,30.201233 
	C150.328094,30.634758 153.264587,31.809589 155.690857,33.375523 
	C163.061813,38.132801 167.367050,45.357052 171.002518,53.146992 
	C171.908951,55.089260 174.193359,56.388451 175.844421,57.983208 
M154.062622,57.502575 
	C156.066711,58.668530 157.980453,60.045021 160.095459,60.952465 
	C163.505341,62.415478 166.373062,60.346588 166.452835,56.603626 
	C166.578461,50.711082 159.493118,40.324570 154.051025,38.423557 
	C149.830582,36.949284 147.380859,38.680294 146.987106,43.114113 
	C146.457214,49.080986 149.658905,53.175510 154.062622,57.502575 
z"/>
<path fill="#666666" opacity="1.000000" stroke="none" 
	d="
M170.108170,101.930359 
	C170.030624,103.388191 169.953079,104.846008 169.594452,106.729660 
	C168.540131,108.103355 167.766907,109.051231 166.781570,110.160995 
	C166.316910,110.575165 166.064362,110.827431 165.463226,111.102417 
	C164.067551,111.589378 162.920441,111.906479 161.988480,112.540047 
	C148.991104,121.375954 134.976028,127.483040 119.190102,129.279037 
	C89.810562,132.621582 65.204803,123.141891 44.736469,102.117249 
	C43.784714,101.139618 42.214500,100.764076 40.932323,100.108124 
	C39.960201,96.689224 38.988079,93.270325 38.241863,89.172379 
	C40.280380,87.919144 42.092995,87.344955 43.912567,87.161293 
	C42.951271,91.341217 44.075653,94.325699 47.170967,96.739937 
	C48.464619,97.748932 49.426434,99.177116 50.571102,100.384392 
	C60.922653,111.302063 71.738533,121.622215 87.054695,125.124512 
	C98.608002,127.766357 110.251801,129.786240 122.370438,125.984589 
	C123.484581,125.971062 124.227348,125.962646 125.248779,125.890961 
	C126.017441,125.544830 126.507454,125.261978 127.403893,124.971497 
	C130.862167,124.289604 133.914017,123.615356 137.271149,122.879837 
	C138.389755,122.220329 139.203049,121.622093 140.341980,120.877106 
	C147.116226,117.155968 153.564819,113.581581 160.290710,109.834412 
	C162.394226,107.802010 164.220444,105.942398 166.326324,103.904945 
	C167.773392,103.128189 168.940781,102.529274 170.108170,101.930359 
z"/>
<path fill="#393939" opacity="1.000000" stroke="none" 
	d="
M175.878510,57.595818 
	C174.193359,56.388451 171.908951,55.089260 171.002518,53.146992 
	C167.367050,45.357052 163.061813,38.132801 155.690857,33.375523 
	C153.264587,31.809589 150.328094,30.634758 147.484604,30.201233 
	C142.217285,29.398165 139.410263,32.077477 139.034866,37.430698 
	C138.060226,51.329132 144.960251,61.701546 159.538376,68.213821 
	C160.900543,68.822334 162.314224,69.315506 163.970215,70.285751 
	C163.905960,71.146614 163.575470,71.583961 163.244995,72.021309 
	C156.184601,72.813866 151.559387,68.149940 146.385727,64.602470 
	C135.790466,57.337563 132.098206,47.348793 134.006500,34.855896 
	C135.232742,26.827944 141.447174,22.506699 148.725861,26.147411 
	C154.668594,29.119892 159.717300,33.878185 165.168396,37.836430 
	C166.279251,38.643059 167.416870,39.412846 168.796143,40.071018 
	C171.337616,45.697754 173.625122,51.453091 175.878510,57.595818 
z"/>
<path fill="#777777" opacity="1.000000" stroke="none" 
	d="
M40.981281,100.472023 
	C42.214500,100.764076 43.784714,101.139618 44.736469,102.117249 
	C65.204803,123.141891 89.810562,132.621582 119.190102,129.279037 
	C134.976028,127.483040 148.991104,121.375954 161.988480,112.540047 
	C162.920441,111.906479 164.067551,111.589378 165.308136,111.374664 
	C164.053665,113.785149 162.605667,115.946098 161.138519,118.094475 
	C161.119339,118.081894 161.074203,118.076393 160.829056,118.058578 
	C160.583908,118.040756 160.093781,118.012825 159.726349,118.045883 
	C157.855621,118.750748 156.239410,119.245575 154.866379,120.121552 
	C140.232758,129.457443 123.881721,133.498016 106.906738,133.518372 
	C86.636887,133.542679 68.503723,126.337860 52.765785,113.364975 
	C51.432758,112.266144 49.596462,111.777847 47.730103,110.818787 
	C46.011429,109.431679 44.556625,108.231682 43.101822,107.031693 
	C42.411297,104.966438 41.720768,102.901176 40.981281,100.472023 
z"/>
<path fill="#6D6D6D" opacity="1.000000" stroke="none" 
	d="
M163.955719,133.090759 
	C162.538773,132.763290 161.121841,132.435822 159.011200,131.938950 
	C156.926727,131.385712 155.535950,131.001862 154.127213,130.297852 
	C154.052368,129.339111 153.995468,128.700516 154.295242,127.981331 
	C158.105865,128.280914 161.559814,128.661087 165.376312,129.123489 
	C169.183472,130.781525 172.443649,131.580017 175.944534,128.896942 
	C177.193771,127.939529 179.466171,128.411789 181.206314,127.972893 
	C182.863266,127.555000 184.435181,126.799950 186.458359,126.187714 
	C187.975281,126.206772 189.078323,126.231247 190.425842,126.458771 
	C192.364136,127.063187 194.057968,127.464546 196.783615,128.110397 
	C195.310318,125.992455 194.670181,125.072235 194.030060,124.152008 
	C196.899124,124.716530 199.796234,125.167839 202.631134,125.870270 
	C207.760956,127.141357 208.255692,128.612183 205.322067,133.266800 
	C204.800842,134.093796 204.269470,134.914398 203.036377,135.848236 
	C199.827652,135.147781 197.336258,133.715622 194.820511,133.671555 
	C191.020752,133.604965 186.403183,132.146774 184.127472,137.156235 
	C183.552689,137.665405 182.977890,138.174576 181.897552,138.948914 
	C179.932510,138.815887 177.821350,138.893600 177.123978,137.938766 
	C173.728897,133.290192 169.066376,132.725311 163.955719,133.090759 
z"/>
<path fill="#C0C0C0" opacity="1.000000" stroke="none" 
	d="
M43.905609,86.770760 
	C42.092995,87.344955 40.280380,87.919144 38.232590,88.758163 
	C33.200157,88.650330 29.082914,87.149712 26.310930,82.809509 
	C21.695423,75.582848 25.463100,67.512093 32.479145,64.957085 
	C33.370556,64.632462 34.254082,64.286194 35.885639,63.940170 
	C38.078888,64.363182 39.527760,64.795982 40.940056,65.583893 
	C39.056053,69.010902 37.131840,72.040215 35.394642,75.173225 
	C34.566036,76.667610 33.160793,78.843391 33.681499,79.845474 
	C34.425240,81.276764 36.609245,82.504784 38.335278,82.760986 
	C41.422352,83.219208 44.626698,82.887375 47.782303,83.167259 
	C47.738602,83.631111 47.694618,83.813515 47.351536,84.154144 
	C46.003498,85.131828 44.954556,85.951294 43.905609,86.770760 
z"/>
<path fill="#C0C0C0" opacity="1.000000" stroke="none" 
	d="
M163.156097,72.432159 
	C163.575470,71.583961 163.905960,71.146614 164.322968,70.438309 
	C167.524597,66.559807 171.376694,64.627464 176.644058,64.906372 
	C178.307297,64.983231 179.555069,65.121422 180.691223,65.798950 
	C177.899582,69.468277 174.982193,72.429482 172.603836,75.774002 
	C170.039185,79.380501 171.307266,82.135597 175.717072,82.741402 
	C178.807556,83.165962 181.984253,82.962936 185.122437,83.040192 
	C183.665665,86.852570 180.700485,88.162964 176.083405,88.013680 
	C174.540024,88.047073 173.773239,88.088257 172.689117,88.030869 
	C171.932800,87.875946 171.493805,87.819595 170.815216,87.535622 
	C167.970139,84.877090 165.364655,82.446175 162.788666,79.903740 
	C162.818161,79.792221 162.658585,79.625618 162.658585,79.625618 
	C162.658585,79.625618 162.698654,79.610382 162.798248,79.388153 
	C162.821075,78.733063 162.744293,78.300194 162.667511,77.867332 
	C162.800751,76.192558 162.933975,74.517776 163.156097,72.432159 
z"/>
<path fill="#434343" opacity="1.000000" stroke="none" 
	d="
M68.603958,15.974934 
	C68.222633,17.302698 67.805389,19.024939 66.731056,20.074739 
	C53.695175,32.812943 46.263165,48.022263 45.565041,66.793274 
	C44.154045,66.438454 43.076412,65.722649 42.000931,64.553360 
	C41.444588,52.119068 46.500359,41.980522 52.384285,32.073402 
	C53.525364,30.152090 54.108540,27.899431 54.949059,25.799618 
	C59.386948,22.552067 63.824833,19.304518 68.603958,15.974934 
z"/>
<path fill="#505050" opacity="1.000000" stroke="none" 
	d="
M161.157684,118.107056 
	C162.605667,115.946098 164.053665,113.785149 165.656738,111.351952 
	C166.064362,110.827431 166.316910,110.575165 167.166397,110.250031 
	C174.556595,111.455460 181.349838,112.733734 188.143097,114.012016 
	C187.656372,115.306129 186.926956,116.567719 186.748001,117.903076 
	C186.550613,119.375847 186.858398,120.916313 186.683228,122.719353 
	C177.999435,121.376625 169.578568,119.741844 161.157684,118.107056 
z"/>
<path fill="#B6B6B6" opacity="1.000000" stroke="none" 
	d="
M185.461609,82.885880 
	C181.984253,82.962936 178.807556,83.165962 175.717072,82.741402 
	C171.307266,82.135597 170.039185,79.380501 172.603836,75.774002 
	C174.982193,72.429482 177.899582,69.468277 180.857315,66.140411 
	C188.300995,70.080490 190.021973,76.273193 185.461609,82.885880 
z"/>
<path fill="#999999" opacity="1.000000" stroke="none" 
	d="
M42.887756,107.382095 
	C44.556625,108.231682 46.011429,109.431679 47.809895,111.142990 
	C48.810005,112.816910 49.466454,113.979492 50.017891,115.470093 
	C47.926785,116.831718 45.940693,117.865326 43.812035,118.581314 
	C37.862427,114.964470 31.869856,112.491669 24.968838,114.065536 
	C24.388943,112.103493 23.152607,110.061508 23.379551,108.197708 
	C23.740244,105.235474 25.909060,104.617355 28.908747,105.336998 
	C33.428493,106.421303 38.078850,106.961197 42.887756,107.382095 
z"/>
<path fill="#505050" opacity="1.000000" stroke="none" 
	d="
M54.649330,25.977745 
	C54.108540,27.899431 53.525364,30.152090 52.384285,32.073402 
	C46.500359,41.980522 41.444588,52.119068 41.744469,64.604553 
	C41.316109,65.149094 41.146370,65.188934 40.976635,65.228783 
	C39.527760,64.795982 38.078888,64.363182 36.255539,63.873787 
	C38.137608,54.255047 40.292915,44.638767 46.245945,36.498688 
	C48.829948,32.965363 51.641434,29.598398 54.649330,25.977745 
z"/>
<path fill="#434343" opacity="1.000000" stroke="none" 
	d="
M188.404633,113.755829 
	C181.349838,112.733734 174.556595,111.455460 167.378510,110.088142 
	C167.766907,109.051231 168.540131,108.103355 169.611664,107.079376 
	C173.721985,106.677498 177.557892,106.521927 181.341217,105.991440 
	C189.932205,104.786873 189.945694,104.736435 188.404633,113.755829 
z"/>
<path fill="#A7A7A7" opacity="1.000000" stroke="none" 
	d="
M24.991751,114.430298 
	C31.869856,112.491669 37.862427,114.964470 43.444878,118.646545 
	C41.135571,119.666824 39.050854,120.304253 36.640617,120.974670 
	C35.885006,121.081413 35.454914,121.155167 34.701210,121.192299 
	C33.582287,121.430756 32.786976,121.705826 31.618898,122.002403 
	C30.502228,122.095024 29.758322,122.166138 28.745674,122.163773 
	C28.294361,122.056145 28.111788,122.021996 27.929211,121.987854 
	C26.957697,119.590256 25.986181,117.192665 24.991751,114.430298 
z"/>
<path fill="#959595" opacity="1.000000" stroke="none" 
	d="
M22.976606,138.119980 
	C21.118906,138.408112 19.259451,138.932449 17.403988,138.918671 
	C15.506251,138.904602 13.612428,138.362976 11.301861,138.044159 
	C8.998908,135.484497 6.952629,133.022964 5.395202,130.283508 
	C5.163805,129.876495 7.236145,128.159760 8.643163,127.371002 
	C9.699920,128.182266 10.356200,128.671494 11.327576,129.162933 
	C12.061460,129.197067 12.480248,129.228989 12.936359,129.621796 
	C14.221851,135.256149 18.587679,134.695114 22.459038,135.312576 
	C22.631744,136.054855 22.807875,136.537567 22.972202,137.295135 
	C22.965801,137.753326 22.971203,137.936646 22.976606,138.119980 
z"/>
<path fill="#878787" opacity="1.000000" stroke="none" 
	d="
M184.379807,137.336288 
	C186.403183,132.146774 191.020752,133.604965 194.820511,133.671555 
	C197.336258,133.715622 199.827652,135.147781 202.713989,135.990112 
	C202.638748,136.948608 202.179474,137.875504 201.420883,138.915222 
	C197.213028,139.087204 193.296402,139.313705 189.399857,139.125076 
	C187.788437,139.047073 186.220078,138.079391 184.379807,137.336288 
z"/>
<path fill="#3C3C3C" opacity="1.000000" stroke="none" 
	d="
M161.138519,118.094475 
	C169.578568,119.741844 177.999435,121.376625 186.868835,122.967773 
	C187.317368,122.924126 187.685974,122.940956 187.941223,123.307831 
	C188.858093,124.535042 189.519730,125.395378 190.181381,126.255722 
	C189.078323,126.231247 187.975281,126.206772 186.079407,126.048508 
	C181.218826,125.240448 177.151077,124.566185 172.774567,123.692963 
	C170.572098,122.967049 168.554245,122.694588 166.817047,121.846916 
	C164.775558,120.850792 162.977707,119.355316 161.074203,118.076393 
	C161.074203,118.076393 161.119339,118.081894 161.138519,118.094475 
z"/>
<path fill="#3C3C3C" opacity="1.000000" stroke="none" 
	d="
M173.006454,88.129440 
	C173.773239,88.088257 174.540024,88.047073 175.686218,88.073380 
	C175.560715,90.257744 175.055786,92.374619 173.973175,94.837151 
	C171.260635,96.449005 169.125809,97.715202 166.973389,98.622391 
	C165.630264,96.536049 164.304733,94.808708 163.402954,93.066620 
	C167.957047,93.407288 171.445023,92.564758 173.006454,88.129440 
z"/>
<path fill="#434343" opacity="1.000000" stroke="none" 
	d="
M166.990967,98.981400 
	C169.125809,97.715202 171.260635,96.449005 173.729675,95.099121 
	C172.832336,97.117630 171.600769,99.219818 170.238678,101.626183 
	C168.940781,102.529274 167.773392,103.128189 166.057190,103.757439 
	C163.007324,104.526726 160.506256,105.265678 158.128387,105.753967 
	C158.504562,105.005447 158.757538,104.507607 159.293121,103.831146 
	C162.047455,102.095490 164.519211,100.538452 166.990967,98.981400 
z"/>
<path fill="#A7A7A7" opacity="1.000000" stroke="none" 
	d="
M41.859184,157.359100 
	C42.317585,157.619675 43.096691,158.719666 43.073807,158.736603 
	C39.142582,161.647675 35.154015,164.481308 31.057781,167.097260 
	C34.567089,163.815338 38.186237,160.754059 41.859184,157.359100 
z"/>
<path fill="#777777" opacity="1.000000" stroke="none" 
	d="
M27.520519,121.992752 
	C28.111788,122.021996 28.294361,122.056145 28.549843,122.447861 
	C22.421608,124.221405 16.220467,125.637383 9.979898,127.029968 
	C9.940471,127.006577 9.955602,126.916138 9.955601,126.916138 
	C15.674343,125.276642 21.393085,123.637146 27.520519,121.992752 
z"/>
<path fill="#5E5E5E" opacity="1.000000" stroke="none" 
	d="
M190.425842,126.458771 
	C189.519730,125.395378 188.858093,124.535042 188.116119,123.366562 
	C189.781830,123.361786 191.527878,123.665161 193.651993,124.060272 
	C194.670181,125.072235 195.310318,125.992455 196.783615,128.110397 
	C194.057968,127.464546 192.364136,127.063187 190.425842,126.458771 
z"/>
<path fill="#878787" opacity="1.000000" stroke="none" 
	d="
M11.012478,129.160721 
	C10.356200,128.671494 9.699920,128.182266 9.011871,127.426880 
	C9.139894,127.108826 9.299685,127.056923 9.707539,126.960571 
	C9.955602,126.916138 9.940471,127.006577 10.103687,127.292099 
	C10.515429,128.105331 10.763951,128.633026 11.012478,129.160721 
z"/>
<path fill="#434343" opacity="1.000000" stroke="none" 
	d="
M69.709122,15.184884 
	C69.736076,15.344110 69.515656,15.546484 69.097702,15.865494 
	C69.017578,15.684848 69.204773,15.433482 69.709122,15.184884 
z"/>
<path fill="#484848" opacity="1.000000" stroke="none" 
	d="
M130.001221,116.991333 
	C130.442062,116.988739 130.882889,116.986137 132.011017,116.911652 
	C134.470139,115.905159 136.241989,114.970535 138.013824,114.035919 
	C139.114334,113.716492 140.214859,113.397072 141.958221,113.229927 
	C143.737534,113.592278 144.873978,113.802345 145.786682,114.285583 
	C145.033264,114.955338 144.561264,115.520584 143.965622,115.724251 
	C117.888100,124.640717 92.608566,122.929352 68.382927,109.601074 
	C65.783806,108.171120 63.451965,105.501472 62.035572,102.851357 
	C59.881561,98.821144 58.637146,94.304779 57.380707,89.995224 
	C58.503624,89.996727 59.252243,89.997902 60.000862,89.999084 
	C60.000862,89.999084 60.000000,90.000000 60.094826,90.333466 
	C61.178482,91.723480 61.987183,93.093674 63.187042,93.782768 
	C68.653175,96.922043 74.176994,99.971672 79.784195,102.850739 
	C83.532921,104.775558 86.257484,107.219391 87.158485,111.614517 
	C87.469376,113.131104 88.892273,115.082466 90.275330,115.611565 
	C101.236366,119.804726 112.559601,119.991112 124.000916,117.993050 
	C124.442070,117.990074 124.883217,117.987099 126.009697,117.979446 
	C127.797089,117.646965 128.899155,117.319145 130.001221,116.991333 
z"/>
<path fill="#434343" opacity="1.000000" stroke="none" 
	d="
M123.700119,117.804123 
	C112.559601,119.991112 101.236366,119.804726 90.275330,115.611565 
	C88.892273,115.082466 87.469376,113.131104 87.158485,111.614517 
	C86.257484,107.219391 83.532921,104.775558 79.784195,102.850739 
	C74.176994,99.971672 68.653175,96.922043 63.187042,93.782768 
	C61.987183,93.093674 61.178482,91.723480 60.095200,90.333008 
	C62.905743,91.496712 65.719742,93.216454 68.732605,94.450775 
	C78.183655,98.322723 87.578453,102.404861 97.252846,105.632973 
	C103.650269,107.767647 110.381050,108.442879 115.325645,114.035362 
	C117.098557,116.040565 120.656219,116.467781 123.700119,117.804123 
z"/>
<path fill="#393939" opacity="1.000000" stroke="none" 
	d="
M166.973389,98.622398 
	C164.519211,100.538452 162.047455,102.095490 158.937836,103.860336 
	C156.866211,105.044502 155.432434,106.020882 153.751434,107.000237 
	C153.504242,107.003212 153.009811,107.009430 152.686935,107.050461 
	C151.575745,107.726776 150.787430,108.362076 149.708282,109.125328 
	C148.611053,109.506248 147.804626,109.759216 146.998215,110.012177 
	C144.246124,109.397438 141.432312,108.971931 138.763718,108.101265 
	C136.992935,107.523514 135.429993,106.308708 133.774017,105.379074 
	C135.120804,104.116821 136.322510,102.634323 137.841614,101.633644 
	C142.384308,98.641235 147.002930,95.755241 151.691803,92.997559 
	C153.778824,91.770119 156.105194,90.949600 158.698990,89.929329 
	C159.075058,89.914268 159.064346,89.944664 159.183044,90.239166 
	C160.176117,91.030838 161.050476,91.528023 162.116058,92.184952 
	C162.555862,92.567787 162.779846,92.813347 162.979187,93.081367 
	C164.304733,94.808708 165.630264,96.536049 166.973389,98.622398 
z"/>
<path fill="#B6B6B6" opacity="1.000000" stroke="none" 
	d="
M40.940056,65.583893 
	C41.146370,65.188934 41.316109,65.149094 41.742310,65.058044 
	C43.076412,65.722649 44.154045,66.438454 45.534981,67.270790 
	C47.187656,70.020767 48.537033,72.654205 49.914497,76.026917 
	C49.866638,77.813835 49.790688,78.861473 49.529152,80.122589 
	C49.199280,80.882034 49.055000,81.427994 48.727524,82.018555 
	C48.290226,82.337372 48.036121,82.611595 47.782017,82.885811 
	C44.626698,82.887375 41.422352,83.219208 38.335278,82.760986 
	C36.609245,82.504784 34.425240,81.276764 33.681499,79.845474 
	C33.160793,78.843391 34.566036,76.667610 35.394642,75.173225 
	C37.131840,72.040215 39.056053,69.010902 40.940056,65.583893 
z"/>
<path fill="#505050" opacity="1.000000" stroke="none" 
	d="
M163.402954,93.066620 
	C162.779846,92.813347 162.555862,92.567787 161.952148,91.928093 
	C160.752792,90.989220 159.908569,90.466942 159.064346,89.944664 
	C159.064346,89.944664 159.075058,89.914268 159.084518,89.896225 
	C159.436798,86.430077 157.466446,82.367699 162.193176,79.792892 
	C162.658585,79.625618 162.818161,79.792221 162.421219,80.303497 
	C160.534073,83.994080 160.407562,87.530777 163.640945,89.046783 
	C165.502411,89.919563 168.544281,88.274788 171.054810,87.763245 
	C171.493805,87.819595 171.932800,87.875946 172.689117,88.030869 
	C171.445023,92.564758 167.957047,93.407288 163.402954,93.066620 
z"/>
<path fill="#484848" opacity="1.000000" stroke="none" 
	d="
M48.910721,81.973961 
	C49.055000,81.427994 49.199280,80.882034 49.938236,80.139465 
	C51.350971,79.964905 52.169029,79.986946 52.987091,80.008995 
	C53.546337,81.155518 54.105583,82.302040 54.910160,84.078644 
	C55.439468,86.135941 55.723446,87.563148 55.738560,88.793533 
	C53.283371,86.389130 51.097046,84.181541 48.910721,81.973961 
z"/>
<path fill="#434343" opacity="1.000000" stroke="none" 
	d="
M146.735535,110.203583 
	C147.804626,109.759216 148.611053,109.506248 149.965088,109.136459 
	C150.683807,109.029053 150.854904,109.038460 150.896423,109.346596 
	C149.511261,111.097015 148.255676,112.548706 146.752670,114.003410 
	C146.505249,114.006424 146.010422,114.012413 146.010422,114.012421 
	C144.873978,113.802345 143.737534,113.592278 142.303299,113.203476 
	C143.494614,112.148155 144.983734,111.271576 146.735535,110.203583 
z"/>
<path fill="#434343" opacity="1.000000" stroke="none" 
	d="
M56.007423,88.990356 
	C55.723446,87.563148 55.439468,86.135941 55.079350,84.352463 
	C56.609047,85.778168 58.214886,87.560150 59.910793,89.670609 
	C59.252243,89.997902 58.503624,89.996727 57.201958,89.840263 
	C56.417988,89.469231 56.204155,89.237686 56.007423,88.990356 
z"/>
<path fill="#434343" opacity="1.000000" stroke="none" 
	d="
M137.636353,114.038589 
	C136.241989,114.970535 134.470139,115.905159 132.341660,116.912262 
	C133.742981,116.003578 135.500946,115.022423 137.636353,114.038589 
z"/>
<path fill="#434343" opacity="1.000000" stroke="none" 
	d="
M52.956696,79.666466 
	C52.169029,79.986946 51.350971,79.964905 50.123825,79.925995 
	C49.790688,78.861473 49.866638,77.813835 50.020748,76.379761 
	C51.041374,77.103531 51.983837,78.213730 52.956696,79.666466 
z"/>
<path fill="#434343" opacity="1.000000" stroke="none" 
	d="
M129.734055,116.825516 
	C128.899155,117.319145 127.797089,117.646965 126.340561,117.979576 
	C127.146362,117.542824 128.306625,117.101273 129.734055,116.825516 
z"/>
<path fill="#666666" opacity="1.000000" stroke="none" 
	d="
M162.455185,78.048454 
	C162.744293,78.300194 162.821075,78.733063 162.812164,79.371841 
	C162.565262,79.128365 162.404053,78.678970 162.455185,78.048454 
z"/>
<path fill="#878787" opacity="1.000000" stroke="none" 
	d="
M22.462463,135.053024 
	C18.587679,134.695114 14.221851,135.256149 13.363929,129.541870 
	C22.524376,127.079514 31.294575,125.057968 40.483070,123.035103 
	C42.574650,123.003868 44.247944,122.973961 46.108398,123.255173 
	C49.543427,123.764275 52.791286,123.962257 56.039146,124.160248 
	C56.157158,123.547379 56.275173,122.934509 56.393188,122.321640 
	C55.265110,121.552048 54.137032,120.782455 52.971813,119.674225 
	C51.997417,117.937752 51.060158,116.539917 50.122902,115.142082 
	C49.466454,113.979492 48.810005,112.816910 48.073761,111.330116 
	C49.596462,111.777847 51.432758,112.266144 52.765785,113.364975 
	C68.503723,126.337860 86.636887,133.542679 106.906738,133.518372 
	C123.881721,133.498016 140.232758,129.457443 154.866379,120.121552 
	C156.239410,119.245575 157.855621,118.750748 159.530396,118.320625 
	C157.688202,120.447006 155.811371,122.512878 153.622772,124.166008 
	C151.385147,125.856155 152.034409,126.910912 153.938568,128.061920 
	C153.995468,128.700516 154.052368,129.339111 153.737061,130.373352 
	C149.463074,130.637711 145.232117,127.722992 141.519806,132.179138 
	C138.106476,133.496918 135.040237,134.764313 131.575333,136.053253 
	C114.432007,140.454437 97.697655,139.944321 80.696136,135.778885 
	C78.605614,135.387268 76.789566,135.185684 74.654175,135.074799 
	C73.210228,136.424759 72.085640,137.684021 70.980179,138.963898 
	C70.999306,138.984497 70.952957,138.956650 70.616043,138.991791 
	C69.219475,139.769897 68.159813,140.512863 66.927277,141.514984 
	C66.451691,142.762604 66.148987,143.751083 65.662216,144.732422 
	C65.478149,144.725311 65.112625,144.679291 64.799843,144.544907 
	C63.359867,144.293945 62.232674,144.177353 61.265327,143.769440 
	C62.598682,142.354065 63.684437,141.117310 64.959846,140.124100 
	C73.654259,133.353455 73.628632,132.855957 63.823380,127.643494 
	C62.069828,127.252602 60.523678,127.110100 58.724663,127.099854 
	C58.667130,128.824020 58.862457,130.415939 59.019867,132.379410 
	C57.962395,134.801971 56.942848,136.852982 55.583782,138.935791 
	C54.159088,139.301865 53.073921,139.636139 51.665504,140.016510 
	C50.570534,140.718872 49.798813,141.375122 49.012302,142.264191 
	C48.997509,142.497009 48.968868,142.962692 48.659286,143.023209 
	C47.563175,143.380310 46.776642,143.676880 45.666706,144.018829 
	C44.570892,144.719574 43.798485,145.374939 43.010464,146.261780 
	C42.994850,146.493286 42.956867,146.955765 42.956867,146.955765 
	C41.479713,147.038803 40.002563,147.121857 38.355656,146.708008 
	C40.708389,143.881149 43.100060,141.384216 45.794266,139.273422 
	C47.997810,137.547043 50.878918,136.605148 52.843075,134.684830 
	C53.951862,133.600769 53.814915,131.242538 54.239105,129.458267 
	C52.489021,129.403214 50.738945,129.348160 48.591431,129.302536 
	C39.616821,131.225662 31.039642,133.139343 22.462463,135.053024 
z"/>
<path fill="#777777" opacity="1.000000" stroke="none" 
	d="
M61.105484,144.060760 
	C62.232674,144.177353 63.359867,144.293945 64.500687,144.761627 
	C63.034313,146.416336 61.554325,147.719940 59.641102,149.405151 
	C61.164299,150.236954 61.687538,150.700821 62.280170,150.820160 
	C76.077652,153.599014 89.719788,157.236008 104.075096,156.115250 
	C111.678360,155.521637 119.368652,156.127487 127.014587,155.960144 
	C130.808914,155.877090 134.619141,155.447052 138.374115,154.864365 
	C146.074188,153.669510 153.741867,152.265839 161.685150,150.938385 
	C162.294067,150.974960 162.640717,151.021301 162.987350,151.067627 
	C164.110779,152.605438 165.234207,154.143265 166.575943,155.979919 
	C157.858780,157.367279 149.721298,158.506882 141.648819,159.998260 
	C135.619019,161.112244 129.633316,162.533676 123.714989,164.138992 
	C122.019356,164.598923 120.626724,166.175949 119.042282,167.597809 
	C117.160751,166.731110 115.332100,165.507355 113.116196,163.795685 
	C112.004250,162.876160 111.279556,162.444580 110.554855,162.013000 
	C110.377106,161.964066 110.233688,161.865280 109.933899,161.317780 
	C109.482735,160.607559 109.222275,160.296188 108.961815,159.984833 
	C108.961815,159.984833 109.023979,159.982986 108.798141,159.765961 
	C107.054214,159.716599 105.536125,159.884262 104.018028,160.051910 
	C104.018028,160.051926 103.998512,160.002045 103.658524,159.995468 
	C99.887932,162.335739 96.457336,164.682602 92.808090,166.754425 
	C80.382568,162.012451 68.175697,157.545517 55.696846,152.979050 
	C56.008907,151.763641 56.495224,149.869537 57.152870,147.708511 
	C58.584625,146.314636 59.845055,145.187698 61.105484,144.060760 
z"/>
<path fill="#878787" opacity="1.000000" stroke="none" 
	d="
M56.981544,147.975449 
	C56.495224,149.869537 56.008907,151.763641 55.696846,152.979050 
	C68.175697,157.545517 80.382568,162.012451 92.809608,166.983521 
	C93.029778,167.487656 93.081718,167.943283 93.081718,167.943283 
	C90.934380,169.186234 88.787048,170.429169 86.191246,171.510422 
	C85.009285,170.703568 84.381073,169.766083 83.526131,169.458176 
	C74.331947,166.147034 65.069366,163.023361 55.906048,159.630829 
	C53.760063,158.836319 51.917030,157.223526 49.934616,155.987213 
	C49.970119,155.251724 50.005619,154.516251 50.289032,153.188507 
	C52.685143,151.056000 54.833347,149.515717 56.981544,147.975449 
z"/>
<path fill="#A7A7A7" opacity="1.000000" stroke="none" 
	d="
M57.152870,147.708511 
	C54.833347,149.515717 52.685143,151.056000 50.299713,152.820496 
	C46.341061,153.067932 43.616306,151.778290 42.985222,147.324600 
	C42.956867,146.955765 42.994850,146.493286 43.320435,146.202515 
	C44.436077,145.622528 45.226139,145.333344 46.339294,144.996063 
	C47.431221,144.286209 48.200047,143.624451 48.968872,142.962692 
	C48.968868,142.962692 48.997509,142.497009 49.321968,142.204193 
	C50.435268,141.619720 51.224106,141.328094 52.349052,141.003006 
	C53.764538,140.281021 54.843922,139.592499 55.923302,138.903976 
	C56.942848,136.852982 57.962395,134.801971 59.199486,132.241989 
	C59.647781,131.537186 59.865128,131.327484 60.396271,131.043091 
	C61.825912,129.952148 62.928349,128.922012 64.030785,127.891884 
	C73.628632,132.855957 73.654259,133.353455 64.959846,140.124100 
	C63.684437,141.117310 62.598682,142.354065 61.265327,143.769440 
	C59.845055,145.187698 58.584625,146.314636 57.152870,147.708511 
z"/>
<path fill="#777777" opacity="1.000000" stroke="none" 
	d="
M48.988861,129.293091 
	C50.738945,129.348160 52.489021,129.403214 54.239105,129.458267 
	C53.814915,131.242538 53.951862,133.600769 52.843075,134.684830 
	C50.878918,136.605148 47.997810,137.547043 45.794266,139.273422 
	C43.100060,141.384216 40.708389,143.881149 38.096443,146.524582 
	C35.135475,145.492661 32.156361,144.331985 29.427334,142.742050 
	C27.336456,141.523895 25.561359,139.763733 23.311211,138.182312 
	C22.971203,137.936646 22.965801,137.753326 23.395777,137.279114 
	C31.365717,135.460373 38.922287,134.027588 46.409363,132.294586 
	C47.445274,132.054794 48.137520,130.330276 48.988861,129.293091 
z"/>
<path fill="#959595" opacity="1.000000" stroke="none" 
	d="
M49.580517,156.032883 
	C51.917030,157.223526 53.760063,158.836319 55.906048,159.630829 
	C65.069366,163.023361 74.331947,166.147034 83.526131,169.458176 
	C84.381073,169.766083 85.009285,170.703568 85.887474,171.658340 
	C82.640732,175.727005 80.291870,172.332535 77.218094,171.103271 
	C68.790901,167.733139 60.084435,165.060745 51.483940,162.125549 
	C50.701012,161.858353 49.760250,161.870728 49.113457,161.429657 
	C48.101147,160.739349 47.277306,159.772675 46.373627,158.923065 
	C47.324558,157.974899 48.275490,157.026733 49.580517,156.032883 
z"/>
<path fill="#5A5A5A" opacity="1.000000" stroke="none" 
	d="
M93.442642,167.961731 
	C93.081718,167.943283 93.029778,167.487656 93.028259,167.258545 
	C96.457336,164.682602 99.887932,162.335739 103.680786,160.010345 
	C100.629875,162.681244 97.216728,165.330719 93.442642,167.961731 
z"/>
<path fill="#5A5A5A" opacity="1.000000" stroke="none" 
	d="
M104.434555,160.053131 
	C105.536125,159.884262 107.054214,159.716599 108.792526,159.796539 
	C107.625519,160.047546 106.238297,160.050934 104.434555,160.053131 
z"/>
<path fill="#5A5A5A" opacity="1.000000" stroke="none" 
	d="
M110.774109,162.235382 
	C111.279556,162.444580 112.004250,162.876160 112.834023,163.619568 
	C112.290527,163.440201 111.641945,162.948975 110.774109,162.235382 
z"/>
<path fill="#5A5A5A" opacity="1.000000" stroke="none" 
	d="
M109.073723,160.271851 
	C109.222275,160.296188 109.482735,160.607559 109.876541,161.198273 
	C109.735138,161.171371 109.460381,160.865112 109.073723,160.271851 
z"/>
<path fill="#A7A7A7" opacity="1.000000" stroke="none" 
	d="
M163.128632,150.753082 
	C162.640717,151.021301 162.294067,150.974960 161.458038,150.683792 
	C159.629715,149.324890 158.290771,148.210831 156.742813,146.836578 
	C153.397263,143.983505 150.108643,141.549500 147.176544,138.743027 
	C145.151550,136.804779 143.619324,134.351746 141.866882,132.128754 
	C145.232117,127.722992 149.463074,130.637711 153.755005,130.693512 
	C155.535950,131.001862 156.926727,131.385712 158.648483,131.910400 
	C161.420517,135.535995 163.650040,139.196762 166.361816,142.456299 
	C169.106506,145.755386 169.081100,147.823669 164.682343,149.127274 
	C164.130463,149.290833 163.736847,149.988419 163.128632,150.753082 
z"/>
<path fill="#878787" opacity="1.000000" stroke="none" 
	d="
M164.049042,133.423538 
	C169.066376,132.725311 173.728897,133.290192 177.123978,137.938766 
	C177.821350,138.893600 179.932510,138.815887 181.731964,139.187744 
	C176.961929,145.444321 172.792252,145.571213 167.907852,139.461594 
	C166.490875,137.689209 165.388809,135.665054 164.049042,133.423538 
z"/>
<path fill="#2F2F2F" opacity="1.000000" stroke="none" 
	d="
M153.796951,57.255428 
	C149.658905,53.175510 146.457214,49.080986 146.987106,43.114113 
	C147.380859,38.680294 149.830582,36.949284 154.051025,38.423557 
	C159.493118,40.324570 166.578461,50.711082 166.452835,56.603626 
	C166.373062,60.346588 163.505341,62.415478 160.095459,60.952465 
	C157.980453,60.045021 156.066711,58.668530 153.796951,57.255428 
z"/>
<path fill="#505050" opacity="1.000000" stroke="none" 
	d="
M55.738560,88.793533 
	C56.204155,89.237686 56.417988,89.469231 56.827660,89.839935 
	C58.637146,94.304779 59.881561,98.821144 62.035572,102.851357 
	C63.451965,105.501472 65.783806,108.171120 68.382927,109.601074 
	C92.608566,122.929352 117.888100,124.640717 143.965622,115.724251 
	C144.561264,115.520584 145.033264,114.955338 145.786682,114.285583 
	C146.010422,114.012413 146.505249,114.006424 147.135040,113.992325 
	C151.847687,112.654549 155.930542,111.330872 160.013412,110.007187 
	C153.564819,113.581581 147.116226,117.155968 140.018250,120.910248 
	C138.567856,121.707115 137.766861,122.324104 136.965866,122.941101 
	C133.914017,123.615356 130.862167,124.289604 127.199890,124.870461 
	C126.049683,125.169456 125.509903,125.561844 124.970116,125.954239 
	C124.227348,125.962646 123.484581,125.971062 122.007431,125.789551 
	C112.421478,124.732010 103.478294,124.380333 94.747932,122.830124 
	C88.014214,121.634430 81.070435,119.834053 75.089920,116.662338 
	C68.458542,113.145439 62.231750,108.345154 56.928970,103.010162 
	C52.771740,98.827667 46.231995,94.826271 49.357460,86.761490 
	C49.593781,86.151703 48.256458,84.932068 47.650631,83.995918 
	C47.694618,83.813515 47.738602,83.631111 47.782303,83.167259 
	C48.036121,82.611595 48.290226,82.337372 48.727524,82.018555 
	C51.097046,84.181541 53.283371,86.389130 55.738560,88.793533 
z"/>
<path fill="#5A5A5A" opacity="1.000000" stroke="none" 
	d="
M47.351536,84.154144 
	C48.256458,84.932068 49.593781,86.151703 49.357460,86.761490 
	C46.231995,94.826271 52.771740,98.827667 56.928970,103.010162 
	C62.231750,108.345154 68.458542,113.145439 75.089920,116.662338 
	C81.070435,119.834053 88.014214,121.634430 94.747932,122.830124 
	C103.478294,124.380333 112.421478,124.732010 121.636055,125.794670 
	C110.251801,129.786240 98.608002,127.766357 87.054695,125.124512 
	C71.738533,121.622215 60.922653,111.302063 50.571102,100.384392 
	C49.426434,99.177116 48.464619,97.748932 47.170967,96.739937 
	C44.075653,94.325699 42.951271,91.341217 43.912567,87.161293 
	C44.954556,85.951294 46.003498,85.131828 47.351536,84.154144 
z"/>
<path fill="#484848" opacity="1.000000" stroke="none" 
	d="
M160.290710,109.834404 
	C155.930542,111.330872 151.847687,112.654549 147.382446,113.989311 
	C148.255676,112.548706 149.511261,111.097015 151.144440,109.337250 
	C151.522018,109.029175 152.018661,109.012360 152.338440,108.968231 
	C153.443054,108.292809 154.227890,107.661530 155.322021,106.960526 
	C156.422623,106.595413 157.213898,106.300026 158.005188,106.004631 
	C160.506256,105.265678 163.007324,104.526726 165.777527,103.935280 
	C164.220444,105.942398 162.394226,107.802010 160.290710,109.834404 
z"/>
<path fill="#5A5A5A" opacity="1.000000" stroke="none" 
	d="
M137.271149,122.879829 
	C137.766861,122.324104 138.567856,121.707115 139.692596,121.056992 
	C139.203049,121.622093 138.389755,122.220329 137.271149,122.879829 
z"/>
<path fill="#5A5A5A" opacity="1.000000" stroke="none" 
	d="
M125.248779,125.890961 
	C125.509903,125.561844 126.049683,125.169456 126.793472,124.878098 
	C126.507454,125.261978 126.017441,125.544830 125.248779,125.890961 
z"/>
<path fill="#5A5A5A" opacity="1.000000" stroke="none" 
	d="
M154.295242,127.981331 
	C152.034409,126.910912 151.385147,125.856155 153.622772,124.166008 
	C155.811371,122.512878 157.688202,120.447006 159.897827,118.287567 
	C160.093781,118.012825 160.583908,118.040756 160.829056,118.058578 
	C162.977707,119.355316 164.775558,120.850792 166.817047,121.846916 
	C168.554245,122.694588 170.572098,122.967049 172.432281,123.902206 
	C169.933548,125.881821 164.860672,123.382607 165.013763,129.041260 
	C161.559814,128.661087 158.105865,128.280914 154.295242,127.981331 
z"/>
<path fill="#5E5E5E" opacity="1.000000" stroke="none" 
	d="
M165.376312,129.123489 
	C164.860672,123.382607 169.933548,125.881821 172.741043,124.101166 
	C177.151077,124.566185 181.218826,125.240448 185.665527,126.053925 
	C184.435181,126.799950 182.863266,127.555000 181.206314,127.972893 
	C179.466171,128.411789 177.193771,127.939529 175.944534,128.896942 
	C172.443649,131.580017 169.183472,130.781525 165.376312,129.123489 
z"/>
<path fill="#666666" opacity="1.000000" stroke="none" 
	d="
M170.815216,87.535614 
	C168.544281,88.274788 165.502411,89.919563 163.640945,89.046783 
	C160.407562,87.530777 160.534073,83.994080 162.391724,80.415016 
	C165.364655,82.446175 167.970139,84.877090 170.815216,87.535614 
z"/>
<path fill="#777777" opacity="1.000000" stroke="none" 
	d="
M50.017887,115.470093 
	C51.060158,116.539917 51.997417,117.937752 52.620819,119.746613 
	C50.178387,121.086456 48.049812,122.015251 45.921234,122.944054 
	C44.247944,122.973961 42.574650,123.003868 40.232841,122.844734 
	C38.698265,122.084351 37.832203,121.513016 36.966137,120.941681 
	C39.050854,120.304253 41.135571,119.666824 43.587448,118.964165 
	C45.940693,117.865326 47.926785,116.831718 50.017887,115.470093 
z"/>
<path fill="#6D6D6D" opacity="1.000000" stroke="none" 
	d="
M36.640617,120.974670 
	C37.832203,121.513016 38.698265,122.084351 39.814552,122.846062 
	C31.294575,125.057968 22.524376,127.079514 13.326606,129.180969 
	C12.480248,129.228989 12.061460,129.197067 11.327574,129.162933 
	C10.763951,128.633026 10.515429,128.105331 10.143115,127.315498 
	C16.220467,125.637383 22.421608,124.221405 28.818584,122.521339 
	C29.758322,122.166138 30.502228,122.095024 31.845985,122.157532 
	C33.305500,121.937080 34.165161,121.582993 35.024826,121.228912 
	C35.454914,121.155167 35.885006,121.081413 36.640617,120.974670 
z"/>
<path fill="#777777" opacity="1.000000" stroke="none" 
	d="
M34.701210,121.192291 
	C34.165161,121.582993 33.305500,121.937080 32.218750,122.136032 
	C32.786976,121.705826 33.582287,121.430756 34.701210,121.192291 
z"/>
<path fill="#505050" opacity="1.000000" stroke="none" 
	d="
M48.591431,129.302536 
	C48.137520,130.330276 47.445274,132.054794 46.409363,132.294586 
	C38.922287,134.027588 31.365717,135.460373 23.407581,137.004272 
	C22.807875,136.537567 22.631744,136.054855 22.459038,135.312576 
	C31.039642,133.139343 39.616821,131.225662 48.591431,129.302536 
z"/>
<path fill="#3C3C3C" opacity="1.000000" stroke="none" 
	d="
M158.128387,105.753967 
	C157.213898,106.300026 156.422623,106.595413 155.068497,106.951416 
	C154.336655,107.007111 154.167648,107.002182 153.998642,106.997253 
	C155.432434,106.020882 156.866211,105.044502 158.655258,104.038948 
	C158.757538,104.507607 158.504562,105.005447 158.128387,105.753967 
z"/>
<path fill="#3C3C3C" opacity="1.000000" stroke="none" 
	d="
M159.183044,90.239166 
	C159.908569,90.466942 160.752792,90.989220 161.760925,91.768356 
	C161.050476,91.528023 160.176117,91.030838 159.183044,90.239166 
z"/>
<path fill="#3C3C3C" opacity="1.000000" stroke="none" 
	d="
M152.018661,109.012360 
	C152.018661,109.012360 151.522018,109.029175 151.274002,109.038513 
	C150.854904,109.038460 150.683807,109.029053 150.255905,109.008507 
	C150.787430,108.362076 151.575745,107.726776 152.561981,107.300194 
	C152.512817,108.010056 152.265732,108.511208 152.018661,109.012360 
z"/>
<path fill="#434343" opacity="1.000000" stroke="none" 
	d="
M152.338440,108.968231 
	C152.265732,108.511208 152.512817,108.010056 152.884857,107.259171 
	C153.009811,107.009430 153.504242,107.003212 153.751434,107.000229 
	C154.167648,107.002182 154.336655,107.007111 154.759186,107.021141 
	C154.227890,107.661530 153.443054,108.292809 152.338440,108.968231 
z"/>
<path fill="#5E5E5E" opacity="1.000000" stroke="none" 
	d="
M141.519806,132.179138 
	C143.619324,134.351746 145.151550,136.804779 147.176544,138.743027 
	C150.108643,141.549500 153.397263,143.983505 156.538940,147.151779 
	C154.508606,148.150436 152.474380,148.934967 150.437454,148.942017 
	C125.894226,149.027054 101.350578,149.012024 76.807121,148.972809 
	C74.501038,148.969116 72.053215,149.035110 69.936447,148.302444 
	C68.351830,147.753952 67.194092,145.972183 65.846283,144.739548 
	C66.148987,143.751083 66.451691,142.762604 67.193436,141.576630 
	C68.739304,140.571640 69.846130,139.764145 70.952957,138.956650 
	C70.952957,138.956650 70.999306,138.984497 71.311768,138.898010 
	C72.740662,137.535721 73.857086,136.259918 74.973518,134.984100 
	C76.789566,135.185684 78.605614,135.387268 80.830978,136.102417 
	C82.128723,137.324982 82.910156,138.312057 83.921631,138.701248 
	C98.830498,144.437622 113.799805,144.516541 128.728943,138.815094 
	C129.982178,138.336472 130.900238,136.980240 131.973999,136.031708 
	C135.040237,134.764313 138.106476,133.496918 141.519806,132.179138 
z"/>
<path fill="#666666" opacity="1.000000" stroke="none" 
	d="
M65.662216,144.732422 
	C67.194092,145.972183 68.351830,147.753952 69.936447,148.302444 
	C72.053215,149.035110 74.501038,148.969116 76.807121,148.972809 
	C101.350578,149.012024 125.894226,149.027054 150.437454,148.942017 
	C152.474380,148.934967 154.508606,148.150436 156.747955,147.411957 
	C158.290771,148.210831 159.629715,149.324890 161.195770,150.693542 
	C153.741867,152.265839 146.074188,153.669510 138.374115,154.864365 
	C134.619141,155.447052 130.808914,155.877090 127.014587,155.960144 
	C119.368652,156.127487 111.678360,155.521637 104.075096,156.115250 
	C89.719788,157.236008 76.077652,153.599014 62.280170,150.820160 
	C61.687538,150.700821 61.164299,150.236954 59.641102,149.405151 
	C61.554325,147.719940 63.034313,146.416336 64.813461,144.896011 
	C65.112625,144.679291 65.478149,144.725311 65.662216,144.732422 
z"/>
<path fill="#434343" opacity="1.000000" stroke="none" 
	d="
M131.575333,136.053253 
	C130.900238,136.980240 129.982178,138.336472 128.728943,138.815094 
	C113.799805,144.516541 98.830498,144.437622 83.921631,138.701248 
	C82.910156,138.312057 82.128723,137.324982 81.105453,136.292450 
	C97.697655,139.944321 114.432007,140.454437 131.575333,136.053253 
z"/>
<path fill="#959595" opacity="1.000000" stroke="none" 
	d="
M46.108398,123.255173 
	C48.049812,122.015251 50.178387,121.086456 52.657959,120.085258 
	C54.137032,120.782455 55.265110,121.552048 56.393188,122.321640 
	C56.275173,122.934509 56.157158,123.547379 56.039146,124.160248 
	C52.791286,123.962257 49.543427,123.764275 46.108398,123.255173 
z"/>
<path fill="#999999" opacity="1.000000" stroke="none" 
	d="
M63.823380,127.643494 
	C62.928349,128.922012 61.825912,129.952148 60.311131,130.693695 
	C59.591702,129.259262 59.284618,128.113434 58.977531,126.967598 
	C60.523678,127.110100 62.069828,127.252602 63.823380,127.643494 
z"/>
<path fill="#959595" opacity="1.000000" stroke="none" 
	d="
M58.724667,127.099854 
	C59.284618,128.113434 59.591702,129.259262 59.983925,130.754486 
	C59.865128,131.327484 59.647781,131.537186 59.237408,131.870422 
	C58.862457,130.415939 58.667130,128.824020 58.724667,127.099854 
z"/>
<path fill="#777777" opacity="1.000000" stroke="none" 
	d="
M74.654175,135.074799 
	C73.857086,136.259918 72.740662,137.535721 71.292633,138.877411 
	C72.085640,137.684021 73.210228,136.424759 74.654175,135.074799 
z"/>
<path fill="#777777" opacity="1.000000" stroke="none" 
	d="
M70.616043,138.991791 
	C69.846130,139.764145 68.739304,140.571640 67.366318,141.317474 
	C68.159813,140.512863 69.219475,139.769897 70.616043,138.991791 
z"/>
<path fill="#999999" opacity="1.000000" stroke="none" 
	d="
M55.583778,138.935791 
	C54.843922,139.592499 53.764538,140.281021 52.342804,140.736267 
	C51.996555,140.325470 51.992657,140.147949 51.988754,139.970413 
	C53.073921,139.636139 54.159088,139.301865 55.583778,138.935791 
z"/>
<path fill="#959595" opacity="1.000000" stroke="none" 
	d="
M51.665504,140.016510 
	C51.992657,140.147949 51.996555,140.325470 52.006699,140.769730 
	C51.224106,141.328094 50.435268,141.619720 49.336761,141.971375 
	C49.798813,141.375122 50.570534,140.718872 51.665504,140.016510 
z"/>
<path fill="#999999" opacity="1.000000" stroke="none" 
	d="
M48.659290,143.023209 
	C48.200047,143.624451 47.431221,144.286209 46.332466,144.728134 
	C45.998398,144.330017 45.994255,144.151733 45.990112,143.973450 
	C46.776642,143.676880 47.563175,143.380310 48.659290,143.023209 
z"/>
<path fill="#959595" opacity="1.000000" stroke="none" 
	d="
M45.666702,144.018829 
	C45.994255,144.151733 45.998398,144.330017 46.009369,144.776230 
	C45.226139,145.333344 44.436077,145.622528 43.336044,145.971008 
	C43.798485,145.374939 44.570892,144.719574 45.666702,144.018829 
z"/>
</svg>